<svg xmlns="http://www.w3.org/2000/svg" width="1500" height="1000" viewBox="0 0 1500 1000">
  <rect width="100%" height="100%" fill="#ffffff"/>
  <style>
    .title{font:700 34px Inter, Arial, sans-serif; fill:#123b74;}
    .sub{font:700 17px Inter, Arial, sans-serif; fill:#6b7280; letter-spacing:0.04em;}
    .label{font:700 19px Inter, Arial, sans-serif; fill:#111827;}
    .small{font:500 15px Inter, Arial, sans-serif; fill:#4b5563;}
    .dim{font:600 14px Inter, Arial, sans-serif; fill:#6b7280;}
    .line{stroke:#1f2937; stroke-width:2.6; fill:none;}
    .line2{stroke:#374151; stroke-width:1.8; fill:none;}
    .light{stroke:#94a3b8; stroke-width:1.2; fill:none;}
    .filll{fill:#ffffff; stroke:#1f2937; stroke-width:1.8;}
    .gray{fill:#f8fafc; stroke:#cbd5e1; stroke-width:1.2;}
  </style>
  
<text x="70" y="85" class="title">Master Bedroom Layout Plan</text>
<text x="70" y="135" class="sub">BED / WARDROBE / FEATURE WALL / CEILING LAYOUT</text>
<rect x="95" y="180" width="650" height="560" class="filll"/>
<rect x="210" y="285" width="250" height="165" class="gray"/>
<rect x="175" y="300" width="35" height="140" class="gray"/>
<rect x="460" y="300" width="35" height="140" class="gray"/>
<rect x="540" y="220" width="150" height="300" class="gray"/>
<rect x="145" y="530" width="150" height="95" class="gray"/>
<rect x="330" y="530" width="115" height="95" class="gray"/>
<circle cx="510" cy="610" r="55" class="line2"/>
<line x1="95" y1="460" x2="745" y2="460" class="light"/>
<line x1="505" y1="180" x2="505" y2="740" class="light"/>
<text x="100" y="770" class="small">Plan indicates bed position, side tables, wardrobe and circulation space.</text>
<line x1="95" y1="150" x2="745" y2="150" class="light"/><line x1="95" y1="150" x2="95" y2="170" class="light"/><line x1="745" y1="150" x2="745" y2="170" class="light"/>
<text x="392" y="143" class="dim">5400 mm</text>
<text x="810" y="135" class="sub">WARDROBE ELEVATION</text>
<rect x="820" y="180" width="560" height="270" class="filll"/>
<line x1="860" y1="195" x2="860" y2="435" class="line2"/><line x1="930" y1="195" x2="930" y2="435" class="line2"/><line x1="1000" y1="195" x2="1000" y2="435" class="line2"/><line x1="1070" y1="195" x2="1070" y2="435" class="line2"/><line x1="1140" y1="195" x2="1140" y2="435" class="line2"/><line x1="1210" y1="195" x2="1210" y2="435" class="line2"/><line x1="1280" y1="195" x2="1280" y2="435" class="line2"/>
<line x1="820" y1="340" x2="1380" y2="340" class="line2"/>
<text x="1040" y="482" class="small">Wardrobe elevation reference with module split</text>
<text x="810" y="545" class="sub">HEADBOARD / WALL ELEVATION</text>
<rect x="820" y="590" width="560" height="205" class="filll"/>
<rect x="925" y="660" width="350" height="70" class="line2"/>
<rect x="875" y="635" width="55" height="110" class="line2"/>
<rect x="1275" y="635" width="55" height="110" class="line2"/>
<line x1="820" y1="650" x2="1380" y2="650" class="light"/>
<text x="940" y="835" class="label">CAD Drawing Support</text>
<text x="940" y="868" class="small">Layout, wardrobe elevation and feature wall reference improve bedroom design communication and quotation.</text>

</svg>