<svg xmlns="http://www.w3.org/2000/svg" width="1400" height="900" viewBox="0 0 1400 900">
  <rect width="100%" height="100%" fill="#ffffff"/>
  <style>
    .title{font:700 34px Inter, Arial, sans-serif; fill:#123b74;}
    .sub{font:700 18px Inter, Arial, sans-serif; fill:#6b7280; letter-spacing:0.04em;}
    .label{font:700 20px Inter, Arial, sans-serif; fill:#111827;}
    .small{font:500 16px Inter, Arial, sans-serif; fill:#4b5563;}
    .dim{font:600 14px Inter, Arial, sans-serif; fill:#6b7280;}
    .line{stroke:#1f2937; stroke-width:3; fill:none;}
    .line2{stroke:#374151; stroke-width:2; fill:none;}
    .light{stroke:#94a3b8; stroke-width:1.6; fill:none;}
    .guide{stroke:#e5e7eb; stroke-width:1; fill:none;}
    .filll{fill:#ffffff; stroke:#1f2937; stroke-width:2.2;}
    .accent{fill:#f8fafc; stroke:#d1d5db; stroke-width:1.5;}
  </style>
  
<text x="60" y="80" class="title">Wall Panel CAD Drawing</text>
<text x="80" y="145" class="sub">ELEVATION</text>
<rect x="90" y="180" width="760" height="420" class="filll"/>
<line x1="120" y1="190" x2="120" y2="590" class="line2"/><line x1="165" y1="190" x2="165" y2="590" class="line2"/><line x1="210" y1="190" x2="210" y2="590" class="line2"/><line x1="255" y1="190" x2="255" y2="590" class="line2"/><line x1="300" y1="190" x2="300" y2="590" class="line2"/><line x1="345" y1="190" x2="345" y2="590" class="line2"/><line x1="390" y1="190" x2="390" y2="590" class="line2"/><line x1="435" y1="190" x2="435" y2="590" class="line2"/><line x1="480" y1="190" x2="480" y2="590" class="line2"/><line x1="525" y1="190" x2="525" y2="590" class="line2"/><line x1="570" y1="190" x2="570" y2="590" class="line2"/><line x1="615" y1="190" x2="615" y2="590" class="line2"/><line x1="660" y1="190" x2="660" y2="590" class="line2"/><line x1="705" y1="190" x2="705" y2="590" class="line2"/><line x1="750" y1="190" x2="750" y2="590" class="line2"/>
<line x1="90" y1="320" x2="850" y2="320" class="light"/>
<line x1="90" y1="460" x2="850" y2="460" class="light"/>
<text x="915" y="145" class="sub">SECTION</text>
<rect x="950" y="200" width="280" height="300" class="filll"/>
<rect x="980" y="245" width="16" height="210" class="line2"/><rect x="1014" y="245" width="16" height="210" class="line2"/><rect x="1048" y="245" width="16" height="210" class="line2"/><rect x="1082" y="245" width="16" height="210" class="line2"/><rect x="1116" y="245" width="16" height="210" class="line2"/><rect x="1150" y="245" width="16" height="210" class="line2"/>
<rect x="1195" y="230" width="20" height="240" class="line2"/>
<text x="955" y="560" class="small">Slat spacing / substrate / backing wall</text>
<text x="80" y="690" class="label">Drawing & Specification Support</text>
<text x="80" y="725" class="small">Wall panel elevations and profile sections support sizing, module arrangement and finish confirmation.</text>

</svg>