<svg xmlns="http://www.w3.org/2000/svg" width="1600" height="1000" viewBox="0 0 1600 1000">
  <rect width="100%" height="100%" fill="#ffffff"/>
  <style>
    .title{font:700 34px Inter, Arial, sans-serif; fill:#123b74;}
    .sub{font:700 18px Inter, Arial, sans-serif; fill:#6b7280; letter-spacing:0.04em;}
    .label{font:700 20px Inter, Arial, sans-serif; fill:#111827;}
    .small{font:500 16px Inter, Arial, sans-serif; fill:#4b5563;}
    .dim{font:600 14px Inter, Arial, sans-serif; fill:#6b7280;}
    .line{stroke:#1f2937; stroke-width:3; fill:none;}
    .line2{stroke:#374151; stroke-width:2; fill:none;}
    .light{stroke:#94a3b8; stroke-width:1.6; fill:none;}
    .guide{stroke:#e5e7eb; stroke-width:1; fill:none;}
    .filll{fill:#ffffff; stroke:#1f2937; stroke-width:2.2;}
    .accent{fill:#f8fafc; stroke:#d1d5db; stroke-width:1.5;}
  </style>
  
<text x="70" y="80" class="title">Kitchen Cabinet CAD Drawing</text>
<!-- elevation -->
<text x="130" y="150" class="sub">ELEVATION A</text>
<rect x="120" y="180" width="860" height="260" class="filll"/>
<line x1="120" y1="360" x2="980" y2="360" class="line2"/>
<line x1="240" y1="180" x2="240" y2="440" class="line2"/>
<line x1="420" y1="180" x2="420" y2="440" class="line2"/>
<line x1="580" y1="180" x2="580" y2="440" class="line2"/>
<line x1="760" y1="180" x2="760" y2="440" class="line2"/>
<line x1="890" y1="180" x2="890" y2="440" class="line2"/>
<rect x="500" y="285" width="165" height="115" class="line"/>
<rect x="710" y="285" width="90" height="115" class="line"/>
<line x1="500" y1="400" x2="665" y2="400" class="line2"/>
<line x1="710" y1="400" x2="800" y2="400" class="line2"/>
<text x="505" y="270" class="small">Sink Base</text>
<text x="705" y="270" class="small">Cooktop</text>
<line x1="120" y1="145" x2="980" y2="145" class="light"/>
<line x1="120" y1="145" x2="120" y2="165" class="light"/>
<line x1="980" y1="145" x2="980" y2="165" class="light"/>
<text x="510" y="137" class="dim">3000 mm</text>
<line x1="92" y1="180" x2="92" y2="440" class="light"/>
<line x1="92" y1="180" x2="112" y2="180" class="light"/>
<line x1="92" y1="440" x2="112" y2="440" class="light"/>
<text x="76" y="318" transform="rotate(-90 76,318)" class="dim">850 mm</text>
<!-- plan -->
<text x="130" y="520" class="sub">PLAN / TOP VIEW</text>
<rect x="140" y="560" width="690" height="170" class="filll"/>
<line x1="140" y1="645" x2="830" y2="645" class="line2"/>
<line x1="300" y1="560" x2="300" y2="730" class="line2"/>
<line x1="620" y1="560" x2="620" y2="730" class="line2"/>
<line x1="170" y1="535" x2="800" y2="535" class="light"/>
<line x1="170" y1="535" x2="170" y2="555" class="light"/>
<line x1="800" y1="535" x2="800" y2="555" class="light"/>
<text x="450" y="528" class="dim">3000 mm</text>
<circle cx="485" cy="688" r="20" class="line2"/>
<rect x="580" y="666" width="48" height="35" class="line2"/>
<text x="465" y="760" class="small">Countertop with sink and cooktop layout</text>
<!-- side view -->
<text x="930" y="150" class="sub">SIDE VIEW</text>
<rect x="930" y="180" width="150" height="260" class="filll"/>
<line x1="1005" y1="180" x2="1005" y2="440" class="line2"/>
<line x1="930" y1="360" x2="1080" y2="360" class="line2"/>
<line x1="1120" y1="180" x2="1120" y2="440" class="light"/>
<line x1="1100" y1="180" x2="1120" y2="180" class="light"/>
<line x1="1100" y1="440" x2="1120" y2="440" class="light"/>
<text x="1138" y="318" transform="rotate(90 1138,318)" class="dim">600 mm</text>
<!-- 3D view -->
<text x="1160" y="150" class="sub">3D VIEW</text>
<polygon points="1180,390 1380,390 1480,440 1270,440" class="filll"/>
<polygon points="1180,180 1380,180 1480,230 1270,230" class="filll"/>
<line x1="1180" y1="180" x2="1180" y2="390" class="line2"/>
<line x1="1270" y1="230" x2="1270" y2="440" class="line2"/>
<line x1="1380" y1="180" x2="1380" y2="390" class="line2"/>
<line x1="1480" y1="230" x2="1480" y2="440" class="line2"/>
<line x1="1235" y1="205" x2="1235" y2="415" class="line2"/>
<line x1="1310" y1="205" x2="1310" y2="415" class="line2"/>
<line x1="1180" y1="320" x2="1380" y2="320" class="line2"/>
<line x1="1270" y1="370" x2="1480" y2="370" class="line2"/>
<circle cx="1215" cy="462" r="28" class="line2"/>
<line x1="1215" y1="434" x2="1215" y2="390" class="line2"/>
<circle cx="1260" cy="472" r="28" class="line2"/>
<line x1="1260" y1="444" x2="1260" y2="400" class="line2"/>
<text x="1160" y="770" class="label">Drawing & Specification Support</text>
<text x="1160" y="805" class="small">Professional CAD drawings help confirm size, layout, cabinet structure and quotation.</text>

</svg>